<svg width="290" height="290" viewBox="0 0 290 290" xmlns="http://www.w3.org/2000/svg">
<path d="M188.894 0H101.106C71.9925 0 57.4369 0 41.7672 4.95414C24.6573 11.182 11.1819 24.6573 4.95417 41.7672C0 57.4369 0 71.9949 0 101.106V188.894C0 218.007 0 232.561 4.95417 248.233C11.1819 265.343 24.6573 278.818 41.7672 285.043C57.4369 290 71.9925 290 101.106 290H188.894C218.007 290 232.561 290 248.233 285.043C265.343 278.818 278.818 265.343 285.046 248.233C290 232.561 290 218.007 290 188.894V101.106C290 71.9949 290 57.4369 285.046 41.7672C278.818 24.6573 265.343 11.182 248.233 4.95414C232.561 0 218.007 0 188.894 0Z" fill="#FFFFFF"/>
<path d="M220.697 136.77L225.464 131.942L220.697 136.77ZM216.621 118.913L210.232 116.631L216.621 118.913ZM209.743 184.763L207.543 178.344L209.743 184.763ZM79.8834 184.763L77.6836 191.182L79.8834 184.763ZM91.3031 199.083L84.5559 199.799L91.3031 199.083ZM68.9293 136.77L64.1624 131.942L68.9293 136.77ZM185.929 80.4262L185.126 73.6888L185.929 80.4262ZM200.799 78.6538L199.996 71.9164L200.799 78.6538ZM231.354 147.291L236.121 142.462L236.121 142.462L231.354 147.291ZM223.909 179.908L226.109 186.327L223.909 179.908ZM196.742 213.975L203.489 214.691L196.742 213.975ZM166.6 228.491L162.953 234.212L166.6 228.491ZM65.7168 179.908L63.517 186.327L65.7168 179.908ZM58.2721 147.291L53.5053 142.463L58.2721 147.291ZM67.968 104.811L61.5782 107.093L67.968 104.811ZM155.773 63.3211L163.659 76.0522L175.195 68.9064L167.309 56.1753L155.773 63.3211ZM215.93 141.599L226.587 152.12L236.121 142.462L225.464 131.942L215.93 141.599ZM221.71 173.489L207.543 178.344L211.943 191.182L226.109 186.327L221.71 173.489ZM132.008 214.72L119.38 222.769L126.673 234.212L139.302 226.164L132.008 214.72ZM99.6313 213.258L98.0503 198.367L84.5559 199.799L86.1368 214.691L99.6313 213.258ZM79.3947 116.631L74.3579 102.528L61.5782 107.093L66.615 121.196L79.3947 116.631ZM88.0243 85.3913L102.895 87.1637L104.501 73.6888L89.6304 71.9164L88.0243 85.3913ZM186.732 87.1637L201.602 85.3913L199.996 71.9164L185.126 73.6888L186.732 87.1637ZM215.268 102.528L210.232 116.631L223.011 121.196L228.048 107.093L215.268 102.528ZM191.576 198.367L189.995 213.258L203.489 214.691L205.07 199.799L191.576 198.367ZM170.246 222.769L157.618 214.72L150.324 226.164L162.953 234.212L170.246 222.769ZM82.0831 178.344L67.9165 173.489L63.517 186.327L77.6836 191.182L82.0831 178.344ZM63.039 152.12L73.6961 141.599L64.1624 131.942L53.5053 142.463L63.039 152.12ZM125.968 76.0522L133.853 63.3211L122.317 56.1753L114.431 68.9064L125.968 76.0522ZM163.659 76.0522C178.426 99.8934 195.973 121.896 215.93 141.599L225.464 131.942C206.271 112.994 189.397 91.8342 175.195 68.9064L163.659 76.0522ZM210.232 116.631C200.799 143.042 194.537 170.479 191.576 198.367L205.07 199.799C207.918 172.98 213.94 146.594 223.011 121.196L210.232 116.631ZM207.543 178.344C181.014 187.436 155.658 199.647 132.008 214.72L139.302 226.164C162.045 211.668 186.43 199.925 211.943 191.182L207.543 178.344ZM157.618 214.72C133.968 199.647 108.613 187.436 82.0831 178.344L77.6836 191.182C103.197 199.925 127.581 211.668 150.324 226.164L157.618 214.72ZM98.0503 198.367C95.0896 170.479 88.8272 143.042 79.3947 116.631L66.615 121.196C75.6862 146.594 81.7086 172.98 84.5559 199.799L98.0503 198.367ZM73.6961 141.599C93.6535 121.896 111.2 99.8934 125.968 76.0522L114.431 68.9064C100.23 91.8342 83.3551 112.994 64.1624 131.942L73.6961 141.599ZM102.895 87.1637C130.742 90.4828 158.885 90.4828 186.732 87.1637L185.126 73.6888C158.345 76.8807 131.281 76.8807 104.501 73.6888L102.895 87.1637ZM201.602 85.3913C211.107 84.2584 218.488 93.5138 215.268 102.528L228.048 107.093C234.657 88.589 219.506 69.5909 199.996 71.9164L201.602 85.3913ZM226.587 152.12C233.399 158.845 230.765 170.386 221.71 173.489L226.109 186.327C244.696 179.957 250.104 156.266 236.121 142.462L226.587 152.12ZM189.995 213.258C188.984 222.777 178.319 227.914 170.246 222.769L162.953 234.212C179.522 244.773 201.415 234.23 203.489 214.691L189.995 213.258ZM119.38 222.769C111.308 227.914 100.642 222.777 99.6313 213.258L86.1368 214.691C88.2111 234.23 110.104 244.773 126.673 234.212L119.38 222.769ZM67.9165 173.489C58.8612 170.386 56.227 158.845 63.039 152.12L53.5053 142.463C39.5227 156.266 44.9299 179.957 63.517 186.327L67.9165 173.489ZM74.3579 102.528C71.1383 93.5138 78.5193 84.2584 88.0243 85.3913L89.6304 71.9164C70.1201 69.5909 54.9696 88.589 61.5782 107.093L74.3579 102.528ZM167.309 56.1753C156.963 39.4716 132.663 39.4716 122.317 56.1753L133.853 63.3211C138.894 55.1834 150.732 55.1834 155.773 63.3211L167.309 56.1753Z" fill="#14131A"/>
</svg>
